<svg id="Layer_1" data-name="Layer 1" xmlns="http://www.w3.org/2000/svg" viewBox="0 0 220.84 140.14"><defs><style>.cls-1{fill:#fff;}.cls-2{fill:none;stroke:#fff;stroke-miterlimit:10;stroke-width:3px;}</style></defs><path class="cls-1" d="M43.5,41.3c-.3.6-.4,16.7-.3,35.6.2,26.5.6,34.5,1.6,34.9s1.2-7,1.2-34.5V42.5H90.7c34.8,0,44.7-.3,45-1.3C136.4,39.4,44.2,39.4,43.5,41.3Z" transform="translate(-43.16 -39.86)"/><path class="cls-1" d="M261,141.5V178H222c-25.3,0-39,.4-39,1s14.2,1,40.5,1H264V142.5c0-32.7-.2-37.5-1.5-37.5S261,109.7,261,141.5Z" transform="translate(-43.16 -39.86)"/><path class="cls-2" d="M113.8,65v93h-12V65Z" transform="translate(-43.16 -39.86)"/><path class="cls-2" d="M134.8,158V65h13.1l29.8,47.1a262.4,262.4,0,0,1,16.7,30.2l.3-.1c-1.1-12.4-1.4-23.7-1.4-38.2V65h11.3v93H192.5L163,110.8a297.3,297.3,0,0,1-17.4-31.1l-.4.1c.7,11.7,1,22.9,1,38.4V158Z" transform="translate(-43.16 -39.86)"/></svg>